<svg width="128" height="128" viewBox="0 0 128 128" fill="none" xmlns="http://www.w3.org/2000/svg">
<g filter="url(#filter0_i_2_28)">
<rect x="11" y="11" width="106" height="106" rx="28" fill="black"/>
</g>
<g filter="url(#filter1_di_2_28)">
<path d="M61.6652 31.1586L56.3337 47.103C56.0299 48.0249 55.875 49.104 55.875 50.162V56.7724L36.8125 69.3436V67.3887C36.8125 66.4627 35.959 65.8069 34.9063 65.8069C33.8533 65.8069 33 66.5569 33 67.3887V75.2101C33 76.132 33.8533 76.8863 34.9063 76.8863H55.875V81.9147L49.0125 86.4404C48.5359 86.7567 48.25 87.2533 48.25 87.7813V91.9717C48.25 92.8978 49.1078 93.6478 50.1563 93.6478H59.6875V95.324C59.6875 96.2496 60.5453 97 61.5938 97H65.4063C66.459 97 67.3125 96.2495 67.3125 95.4181V93.8363L76.8438 93.8363C77.8965 93.8363 78.75 93.0858 78.75 92.2544V88.064C78.75 87.5361 78.4675 87.0394 77.9875 86.7231L71.125 81.9147V76.9805L92.0938 76.9806C93.1465 76.9806 94 76.2301 94 75.3987V67.5773C94 66.6512 93.1465 65.9955 92.0938 65.9955C91.0408 65.9955 90.1875 66.7455 90.1875 67.5773V69.5321L71.125 57.0552V50.4449C71.125 49.4849 70.9687 48.4021 70.6606 47.4812L65.329 31.5368C64.7867 29.5558 62.2133 29.5558 61.6652 31.1586ZM64.4531 81.0767V89.4574C64.4531 89.9194 64.0242 90.2955 63.5 90.2955C62.9758 90.2955 62.5469 89.9194 62.5469 89.4574V81.1709C62.5469 80.7094 62.9751 80.4271 63.5 80.4271C64.0249 80.4271 64.4531 80.6157 64.4531 81.0767Z" fill="#EEEFFA"/>
</g>
<defs>
<filter id="filter0_i_2_28" x="11" y="11" width="106" height="106" filterUnits="userSpaceOnUse" color-interpolation-filters="sRGB">
<feFlood flood-opacity="0" result="BackgroundImageFix"/>
<feBlend mode="normal" in="SourceGraphic" in2="BackgroundImageFix" result="shape"/>
<feColorMatrix in="SourceAlpha" type="matrix" values="0 0 0 0 0 0 0 0 0 0 0 0 0 0 0 0 0 0 127 0" result="hardAlpha"/>
<feOffset/>
<feGaussianBlur stdDeviation="10"/>
<feComposite in2="hardAlpha" operator="arithmetic" k2="-1" k3="1"/>
<feColorMatrix type="matrix" values="0 0 0 0 0.504167 0 0 0 0 0.57178 0 0 0 0 1 0 0 0 0.4 0"/>
<feBlend mode="normal" in2="shape" result="effect1_innerShadow_2_28"/>
</filter>
<filter id="filter1_di_2_28" x="18" y="15" width="91" height="97" filterUnits="userSpaceOnUse" color-interpolation-filters="sRGB">
<feFlood flood-opacity="0" result="BackgroundImageFix"/>
<feColorMatrix in="SourceAlpha" type="matrix" values="0 0 0 0 0 0 0 0 0 0 0 0 0 0 0 0 0 0 127 0" result="hardAlpha"/>
<feOffset/>
<feGaussianBlur stdDeviation="7.5"/>
<feComposite in2="hardAlpha" operator="out"/>
<feColorMatrix type="matrix" values="0 0 0 0 0.270833 0 0 0 0 0.34375 0 0 0 0 1 0 0 0 0.55 0"/>
<feBlend mode="normal" in2="BackgroundImageFix" result="effect1_dropShadow_2_28"/>
<feBlend mode="normal" in="SourceGraphic" in2="effect1_dropShadow_2_28" result="shape"/>
<feColorMatrix in="SourceAlpha" type="matrix" values="0 0 0 0 0 0 0 0 0 0 0 0 0 0 0 0 0 0 127 0" result="hardAlpha"/>
<feOffset dy="3"/>
<feGaussianBlur stdDeviation="5"/>
<feComposite in2="hardAlpha" operator="arithmetic" k2="-1" k3="1"/>
<feColorMatrix type="matrix" values="0 0 0 0 0.0458333 0 0 0 0 0.084 0 0 0 0 1 0 0 0 0.71 0"/>
<feBlend mode="normal" in2="shape" result="effect2_innerShadow_2_28"/>
</filter>
</defs>
</svg>
